<svg width="175" height="43" viewBox="0 0 175 43" fill="none" xmlns="http://www.w3.org/2000/svg">
<g clip-path="url(#clip0)">
<path d="M21.321 24.67L6.06439 11.9765L2.98655 15.9164L14.6415 25.3031L0 28.0298L0.869446 33.0507L20.2559 29.0335L21.321 24.67ZM1.63891 31.8903L1.11289 28.8173L16.9042 25.8767L4.34723 15.7576L6.21654 13.3641L20.2451 25.034L19.4626 28.1974L1.63891 31.8903Z" fill="black"/>
<path d="M22.71 21.9324L26.7356 20.0242L26.7877 0L21.8341 0.066181L22.021 15.1665L10.6943 5.36507L7.39038 9.21239L22.4753 21.736L22.71 21.9324ZM23.0122 17.2997L22.8231 1.03242L25.8313 0.992714L25.7727 19.3998L22.8622 20.783L8.79019 9.09106L10.8073 6.73722L23.0122 17.2997Z" fill="black"/>
<path d="M42.3333 25.3031L53.9861 15.9164L50.9082 11.9765L35.7581 24.5817L35.6516 24.67L36.7384 29.0335L56.1249 33.0507L56.9813 28.0298L42.3333 25.3031ZM37.5166 28.1974L36.7341 25.034L50.7604 13.3641L52.6297 15.7576L40.0662 25.8767L55.8619 28.8173L55.3359 31.8903L37.5166 28.1974Z" fill="black"/>
<path d="M34.2628 21.9324L49.5737 9.21239L46.2785 5.36507L34.9518 15.1665L35.1387 0.066181L30.1851 0L30.2481 20.0242L34.2628 21.9324ZM31.2197 19.3998L31.1523 0.992714L34.1606 1.03242L33.9606 17.3085L46.1763 6.73943L48.1935 9.09326L34.1258 20.783L31.2197 19.3998Z" fill="black"/>
<path d="M45.3763 34.8553C44.7905 34.2743 44.0853 33.8321 43.3113 33.5603C42.3487 33.2367 41.3386 33.083 40.3248 33.1059H35.2385C34.5317 33.1263 33.8262 33.0302 33.1497 32.8213C32.6764 32.6727 32.2414 32.4196 31.8759 32.0801C31.5511 31.7663 31.289 31.3918 31.1043 30.977C30.8923 30.4903 30.7143 29.9891 30.5718 29.4769L30.4739 29.1196H26.4919L26.3941 29.4703C26.2525 29.9828 26.0746 30.4841 25.8615 30.9704C25.6768 31.3852 25.4148 31.7597 25.0899 32.0734C24.7241 32.4129 24.2893 32.6667 23.8162 32.8169C23.1392 33.0238 22.434 33.1192 21.7273 33.0993H16.954C15.9403 33.0764 14.9301 33.2301 13.9675 33.5537C13.1935 33.8255 12.4883 34.2677 11.9026 34.8486C11.3606 35.4077 10.9549 36.0876 10.7179 36.8341C10.4702 37.6325 10.3485 38.4656 10.3571 39.3026C10.3558 39.6032 10.3696 39.9036 10.3984 40.2027C10.4288 40.4828 10.4571 40.7057 10.4875 40.9086V40.9307C10.5328 41.1051 10.5691 41.2818 10.5962 41.4601L10.6419 41.7778L15.3391 42.958L15.2369 42.2499C15.2052 42.0372 15.1587 41.8271 15.0978 41.6212C15.0501 41.478 15.0173 41.3301 15 41.1799C14.9758 40.9816 14.9642 40.7819 14.9652 40.5821C14.9652 39.7769 15.1456 39.1614 15.5021 38.7511C15.8585 38.3408 16.5519 38.1643 17.6061 38.1643H22.2164C23.159 38.1842 24.0984 38.0456 24.9964 37.754C25.7104 37.5128 26.3738 37.1387 26.9527 36.651C27.4403 36.2379 27.8575 35.7459 28.1873 35.195C28.2895 35.0185 28.3851 34.842 28.4742 34.6633C28.5677 34.8442 28.6677 35.0251 28.7785 35.2038C29.5181 36.4004 30.6446 37.2988 31.965 37.7452C32.8676 38.0436 33.8134 38.1853 34.7625 38.1643H39.6901C40.7312 38.1643 41.429 38.3628 41.7746 38.7533C42.1202 39.1438 42.3115 39.7791 42.3115 40.5843C42.3204 40.9553 42.2831 41.3259 42.2006 41.6873V41.7094C42.1788 41.8701 42.1439 42.0288 42.0963 42.1837L41.8572 42.9911L46.6391 41.791L46.7152 41.5285C46.7762 41.3168 46.8213 41.1008 46.85 40.8821C46.8782 40.6902 46.8978 40.4608 46.913 40.1784C46.9282 39.896 46.9347 39.6115 46.9347 39.296C46.9436 38.4581 46.8211 37.6241 46.5718 36.8252C46.3291 36.0834 45.9199 35.409 45.3763 34.8553ZM14.0175 40.5909C14.0171 40.8314 14.0316 41.0715 14.061 41.3101C14.0784 41.4403 14.1001 41.5638 14.124 41.6741L11.4917 41.0123C11.4744 40.9218 11.4526 40.8292 11.4287 40.7409C11.4048 40.5689 11.3787 40.3615 11.3526 40.1166C11.3266 39.8718 11.3157 39.6048 11.3157 39.3159C11.3071 38.5792 11.4135 37.8458 11.6309 37.1429C11.8224 36.5371 12.1515 35.9855 12.5916 35.5325C13.0769 35.0529 13.6612 34.689 14.3022 34.467C15.1572 34.1812 16.0541 34.0461 16.954 34.0677H21.736C22.5456 34.0873 23.353 33.9741 24.127 33.7324C24.7324 33.5374 25.2882 33.2098 25.755 32.7728C26.1672 32.3726 26.4993 31.8955 26.7332 31.3675C26.9177 30.9504 27.0774 30.5224 27.2113 30.0858H29.7545C29.8899 30.5219 30.0495 30.9498 30.2327 31.3675C30.4671 31.8952 30.7991 32.3722 31.2108 32.7728C31.6766 33.2101 32.2317 33.5378 32.8367 33.7324C33.6142 33.9749 34.4253 34.0881 35.2385 34.0677H40.3248C41.2267 34.0451 42.1258 34.1794 42.9831 34.4648C43.6235 34.6872 44.2076 35.0502 44.6937 35.5281C45.132 35.983 45.4602 36.5351 45.6523 37.1407C45.8697 37.8436 45.976 38.577 45.9675 39.3136C45.9675 39.6048 45.9675 39.8828 45.9479 40.1387C45.9284 40.3946 45.9153 40.5931 45.8914 40.7586C45.8914 40.8446 45.8675 40.9263 45.8523 41.0057L43.1831 41.6675C43.2441 41.3084 43.2724 40.9443 43.2679 40.5799C43.2679 39.5365 43.007 38.707 42.4919 38.118C41.9767 37.529 41.0377 37.1981 39.6901 37.1981H34.7625C33.9277 37.2197 33.0952 37.0989 32.2998 36.8407C31.7037 36.6386 31.149 36.3276 30.6631 35.923C30.2503 35.5734 29.8932 35.1611 29.6045 34.7008C29.347 34.2845 29.1356 33.8406 28.9742 33.3772L28.8633 33.0551H28.1025L27.9917 33.3772C27.8305 33.8385 27.6237 34.2819 27.3744 34.7008C27.0999 35.1607 26.7517 35.5707 26.3441 35.9142C25.8523 36.3203 25.2907 36.6307 24.6878 36.8297C23.8858 37.0888 23.0469 37.2104 22.2055 37.1892H17.6061C16.2563 37.1892 15.3391 37.4915 14.8022 38.1092C14.2653 38.7268 14.0175 39.5453 14.0175 40.5909Z" fill="black"/>
<path d="M74.8658 31.2992C74.6876 31.738 74.4386 32.1436 74.1289 32.4993C73.9628 32.6996 73.754 32.8589 73.5182 32.9651C73.2825 33.0714 73.026 33.1218 72.7682 33.1125C72.5148 33.1306 72.2609 33.0865 72.0279 32.984C71.7948 32.8815 71.5895 32.7236 71.4293 32.5235C71.1308 32.1308 70.9822 31.4499 70.9837 30.4807V17.9063H76.4721V13.8803H70.9837V5.98715L66.1626 8.93441V13.8803H62.2805V17.9152H66.1626V30.9308C66.1375 31.9476 66.2891 32.9609 66.6104 33.9244C66.86 34.6662 67.2716 35.3412 67.8145 35.8987C68.3284 36.4021 68.9572 36.7682 69.6447 36.9643C70.399 37.1817 71.1799 37.2887 71.964 37.2819C73.0736 37.3162 74.173 37.0577 75.1549 36.5319C75.8611 36.1663 76.5024 35.684 77.0524 35.1046L74.8658 31.2992ZM94.3218 18.2836C94.6878 18.5529 94.9843 18.9079 95.186 19.3185C95.3877 19.7291 95.4887 20.1831 95.4803 20.6418C95.4803 21.5242 95.0456 22.1368 94.1762 22.4795C92.9488 22.9242 91.6875 23.2658 90.405 23.5008C89.4529 23.7126 88.4856 23.9619 87.5032 24.2487C86.5504 24.5241 85.6413 24.9364 84.8035 25.473C83.9983 25.99 83.3137 26.6788 82.7973 27.4916C82.2756 28.3078 82.0148 29.3373 82.0148 30.58C81.9978 31.5525 82.1807 32.5179 82.5517 33.4148C82.8899 34.221 83.3999 34.9413 84.0449 35.5237C84.7015 36.1084 85.4653 36.5559 86.2925 36.8407C87.1978 37.1455 88.147 37.2946 89.1008 37.2819C89.9102 37.2938 90.7167 37.1792 91.4918 36.9422C92.149 36.7344 92.7784 36.4447 93.3654 36.0796C93.8827 35.7585 94.3619 35.3781 94.7935 34.9457C95.1583 34.5838 95.4806 34.1804 95.7542 33.7435H95.8868C95.9637 34.2369 96.0829 34.7227 96.2433 35.195C96.4479 35.7328 96.7018 36.2498 97.0019 36.7392H100.84C100.627 36.0061 100.481 35.2542 100.406 34.4935C100.332 33.7229 100.294 32.7022 100.293 31.4315V21.5904C100.322 20.3223 100.087 19.0622 99.6015 17.8931C99.1766 16.8992 98.5361 16.0154 97.7279 15.3076C96.9133 14.614 95.9627 14.1041 94.9391 13.8119C93.8239 13.4885 92.669 13.328 91.5091 13.3354C89.2443 13.318 87.0275 13.998 85.1513 15.2856C84.2893 15.8746 83.528 16.6026 82.8973 17.4409C82.2783 18.262 81.7818 19.171 81.4236 20.1388L85.8425 22.6802C86.0903 21.2683 86.7245 19.9557 87.6727 18.8924C88.5943 17.8791 89.8586 17.3725 91.4657 17.3725C92.4912 17.339 93.4978 17.6585 94.3218 18.2792V18.2836ZM95.6586 27.9857C95.6702 28.7561 95.5151 29.5197 95.2043 30.2226C94.9236 30.8497 94.5214 31.4131 94.0219 31.8794C93.5276 32.334 92.9521 32.6882 92.3264 32.9228C91.6911 33.1638 91.018 33.2864 90.3397 33.2846C89.1805 33.2846 88.3031 33.0125 87.7075 32.4684C87.4141 32.2012 87.1822 31.8718 87.0282 31.5035C86.8742 31.1353 86.8019 30.7371 86.8163 30.3373C86.7945 29.8364 86.935 29.3421 87.2163 28.9299C87.5062 28.5483 87.8711 28.232 88.2878 28.0012C88.7587 27.7332 89.2612 27.5271 89.7833 27.3879C90.3332 27.2379 90.9049 27.0856 91.5005 26.9467C92.3918 26.7518 93.2646 26.478 94.1088 26.1282C94.7331 25.8895 95.2702 25.4622 95.6477 24.9039L95.6586 27.9857ZM107.842 36.7415H112.841V13.8803H107.842V36.7415ZM107.796 10.2492H112.885V4.95472H107.796V10.2492ZM120.56 36.7415H125.559V3.90024H120.56V36.7415ZM146.86 36.4238C148.129 35.8681 149.263 35.0403 150.186 33.9971C151.142 32.8927 151.87 31.6047 152.327 30.2094C152.847 28.6305 153.104 26.9745 153.086 25.3098C153.104 23.6458 152.847 21.9905 152.327 20.4124C151.873 19.018 151.149 17.7301 150.197 16.6246C149.273 15.5823 148.139 14.7546 146.871 14.198C145.52 13.63 144.072 13.3377 142.61 13.3377C141.147 13.3377 139.699 13.63 138.348 14.198C137.08 14.754 135.946 15.5818 135.023 16.6246C134.064 17.7313 133.33 19.0183 132.86 20.4124C132.323 21.9869 132.058 23.6438 132.078 25.3098C132.058 26.9765 132.323 28.6341 132.86 30.2094C133.33 31.6035 134.064 32.8905 135.023 33.9971C135.945 35.0408 137.08 35.8688 138.348 36.4238C139.699 36.9932 141.147 37.2863 142.61 37.2863C144.072 37.2863 145.521 36.9932 146.871 36.4238H146.86ZM137.412 22.2258C137.607 21.3256 137.954 20.4665 138.438 19.6866C138.87 18.9894 139.458 18.4058 140.155 17.9836C140.908 17.5822 141.747 17.3725 142.598 17.3725C143.449 17.3725 144.287 17.5822 145.041 17.9836C145.747 18.4008 146.344 18.9851 146.78 19.6866C147.264 20.4665 147.611 21.3256 147.806 22.2258C148.253 24.2597 148.253 26.3687 147.806 28.4026C147.611 29.3035 147.264 30.1633 146.78 30.944C146.344 31.6454 145.748 32.2291 145.041 32.6448C144.288 33.0477 143.449 33.2582 142.598 33.2582C141.746 33.2582 140.908 33.0477 140.155 32.6448C139.458 32.2241 138.869 31.6411 138.438 30.944C137.954 30.1633 137.607 29.3035 137.412 28.4026C136.964 26.3687 136.964 24.2597 137.412 22.2258ZM159.611 36.7415H164.564V23.6773C164.564 22.0449 164.847 20.6609 165.412 19.5256C165.977 18.3902 166.87 17.8232 168.09 17.8247C168.983 17.8247 169.622 18.1505 170.009 18.802C170.408 19.4961 170.609 20.2888 170.59 21.0919C170.59 21.4536 170.574 21.8331 170.544 22.2258C170.514 22.6184 170.477 22.9824 170.433 23.3155C170.39 23.6486 170.344 23.9354 170.298 24.1759C170.271 24.3441 170.234 24.5105 170.188 24.6745L174.785 21.9081C174.813 21.6875 174.843 21.4536 174.874 21.1823C174.904 20.911 174.933 20.6771 174.963 20.3881C174.993 20.0991 175.006 19.7925 175.006 19.4594C175.011 18.6736 174.891 17.8922 174.65 17.1453C174.429 16.4544 174.089 15.809 173.646 15.2392C173.217 14.696 172.676 14.2547 172.061 13.9465C171.409 13.6223 170.69 13.4591 169.964 13.47C168.567 13.47 167.414 13.8862 166.505 14.7186C165.586 15.5691 164.863 16.6145 164.386 17.7806H164.297L164.564 13.8803H159.604L159.611 36.7415Z" fill="black"/>
</g>
<defs>
<clipPath id="clip0">
<rect width="175" height="43" fill="white"/>
</clipPath>
</defs>
</svg>
